<svg xmlns="http://www.w3.org/2000/svg" xmlns:xlink="http://www.w3.org/1999/xlink" width="40" zoomAndPan="magnify" viewBox="0 0 30 30.000001" height="40" preserveAspectRatio="xMidYMid meet" version="1.0"><defs><clipPath id="a9ff7abb8d"><path d="M 1.5 1.015625 L 28.5 1.015625 L 28.5 28.015625 L 1.5 28.015625 Z M 1.5 1.015625 " clip-rule="nonzero"/></clipPath><clipPath id="1b89f967dc"><path d="M 5.855469 1.015625 L 24.144531 1.015625 C 26.550781 1.015625 28.5 2.964844 28.5 5.371094 L 28.5 23.660156 C 28.5 26.066406 26.550781 28.015625 24.144531 28.015625 L 5.855469 28.015625 C 3.449219 28.015625 1.5 26.066406 1.5 23.660156 L 1.5 5.371094 C 1.5 2.964844 3.449219 1.015625 5.855469 1.015625 Z M 5.855469 1.015625 " clip-rule="nonzero"/></clipPath><clipPath id="6efc701e13"><path d="M 7.625 2.378906 L 22.140625 2.378906 L 22.140625 26.332031 L 7.625 26.332031 Z M 7.625 2.378906 " clip-rule="nonzero"/></clipPath></defs><g clip-path="url(#a9ff7abb8d)"><g clip-path="url(#1b89f967dc)"><path fill="#ffffff" d="M 1.5 1.015625 L 28.5 1.015625 L 28.5 28.015625 L 1.5 28.015625 Z M 1.5 1.015625 " fill-opacity="1" fill-rule="nonzero"/></g></g><g clip-path="url(#6efc701e13)"><path fill="#000000" d="M 7.625 8.515625 L 18.207031 2.390625 L 18.207031 3.722656 L 8.695312 9.226562 L 8.695312 23.070312 L 7.625 23.691406 Z M 11.5625 11.144531 L 22.140625 5.019531 L 22.140625 9.007812 L 15.007812 13.136719 L 15.007812 14.742188 L 22.140625 10.613281 L 22.140625 14.601562 L 15.007812 18.730469 L 15.007812 20.335938 L 22.140625 16.207031 L 22.140625 20.195312 L 11.5625 26.320312 Z M 11.5625 11.144531 " fill-opacity="1" fill-rule="evenodd"/></g></svg>